<svg width="270" height="90" viewBox="0 0 270 90" fill="none" xmlns="http://www.w3.org/2000/svg">
<path d="M44.529 -1.94643e-06C65.2949 -1.03872e-06 75.6778 -5.84871e-07 82.2193 6.33917C82.3885 6.50307 82.555 6.66962 82.7189 6.83875C89.0581 13.3803 89.0581 23.7632 89.0581 44.5291C89.0581 65.295 89.0581 75.6779 82.7189 82.2194C82.555 82.3885 82.3885 82.5551 82.2194 82.719C75.6778 89.0582 65.2949 89.0582 44.529 89.0582C23.7631 89.0582 13.3802 89.0582 6.83868 82.719C6.66955 82.5551 6.50301 82.3885 6.33911 82.2194C-7.01844e-05 75.6779 -6.97305e-05 65.295 -6.88228e-05 44.5291C-6.79151e-05 23.7632 -6.74613e-05 13.3803 6.33911 6.83875C6.50301 6.66962 6.66955 6.50307 6.83868 6.33917C13.3802 -3.30799e-06 23.7631 -2.85413e-06 44.529 -1.94643e-06Z" fill="white"/>
<rect x="38.1719" y="12.7441" width="12.714" height="12.714" fill="black"/>
<rect x="25.458" y="25.458" width="12.714" height="12.714" fill="black"/>
<rect x="50.886" y="12.7441" width="12.714" height="12.714" fill="black"/>
<rect x="63.5999" y="25.458" width="12.714" height="12.714" fill="black"/>
<rect x="12.7439" y="50.8857" width="12.714" height="12.714" fill="black"/>
<rect x="25.458" y="38.1719" width="12.714" height="12.714" fill="black"/>
<rect x="38.1719" y="38.1719" width="12.714" height="12.714" fill="black"/>
<rect x="50.886" y="50.8857" width="12.714" height="12.714" fill="black"/>
<rect x="50.886" y="38.1719" width="12.714" height="12.714" fill="black"/>
<path d="M38.1719 25.458L25.4578 25.458L38.1719 12.744L38.1719 25.458Z" fill="black"/>
<path d="M50.886 63.6006H63.6L50.886 76.3146V63.6006Z" fill="black"/>
<rect x="38.1719" y="63.6006" width="12.714" height="12.714" fill="black"/>
<rect x="25.458" y="63.6006" width="12.714" height="12.714" fill="black"/>
<path d="M111.368 35.5684C109.929 34.339 109.179 32.5998 109.149 30.3508H112.118C112.118 31.7602 112.598 32.8397 113.557 33.5893C114.487 34.339 115.776 34.6988 117.395 34.6988H117.695C119.044 34.6988 120.124 34.3989 120.904 33.7992C121.683 33.1995 122.103 32.3899 122.103 31.4303C122.103 29.7211 120.964 28.6416 118.685 28.2218L115.176 27.5621C113.407 27.2323 112.088 26.6026 111.218 25.643C110.319 24.7135 109.899 23.4541 109.899 21.8348C109.899 20.7553 110.199 19.7358 110.798 18.8062C111.398 17.9067 112.238 17.157 113.377 16.6173C114.517 16.0775 115.836 15.8077 117.335 15.8077C118.865 15.8077 120.214 16.1075 121.353 16.6473C122.493 17.187 123.392 17.9666 124.052 18.9562C124.712 19.9457 125.042 21.0852 125.102 22.4046H122.103C121.983 21.2051 121.503 20.2756 120.664 19.5559C119.824 18.8662 118.745 18.5064 117.425 18.5064H117.125C115.866 18.5064 114.816 18.8362 114.037 19.436C113.227 20.0657 112.837 20.8453 112.837 21.7749C112.837 22.5845 113.077 23.2142 113.587 23.664C114.097 24.1437 114.846 24.4436 115.866 24.6235L119.374 25.2532C121.173 25.6131 122.583 26.2727 123.602 27.2923C124.622 28.3118 125.132 29.6611 125.132 31.3104C125.132 32.5398 124.802 33.6193 124.172 34.5189C123.512 35.4484 122.613 36.1681 121.443 36.6479C120.274 37.1576 118.925 37.3975 117.395 37.3975C114.816 37.3975 112.807 36.7978 111.368 35.5684ZM128.941 22.1047H131.789V37.0977H128.941V22.1047ZM129.09 18.9862C128.731 18.6263 128.551 18.2065 128.551 17.6968C128.551 17.187 128.731 16.7672 129.09 16.4074C129.45 16.0475 129.87 15.8676 130.38 15.8676C130.86 15.8676 131.309 16.0475 131.669 16.4074C132.029 16.7672 132.209 17.217 132.209 17.6968C132.209 18.2065 132.029 18.6263 131.669 18.9862C131.309 19.346 130.86 19.5259 130.38 19.5259C129.87 19.5259 129.45 19.346 129.09 18.9862ZM136.32 22.1047H139.169V24.1138C139.618 23.4241 140.248 22.8543 141.058 22.4345C141.837 22.0147 142.767 21.8048 143.816 21.8048C144.896 21.8048 145.855 22.0447 146.695 22.5245C147.535 23.0043 148.164 23.694 148.644 24.5635C149.094 25.4631 149.334 26.4527 149.334 27.5921V37.0977H146.485V28.2518C146.485 27.0224 146.185 26.0628 145.616 25.3732C145.046 24.6835 144.206 24.3237 143.127 24.3237H143.067C141.897 24.3237 140.968 24.7734 140.248 25.673C139.528 26.5726 139.169 27.7121 139.169 29.1214V37.0977H136.32V22.1047ZM154.794 42.4052C153.594 41.5356 152.904 40.3661 152.785 38.9268H155.633C155.753 39.7064 156.173 40.3061 156.893 40.726C157.612 41.1458 158.512 41.3257 159.651 41.3257H159.921C161.181 41.3257 162.23 40.9658 163.04 40.1862C163.819 39.4366 164.239 38.2971 164.239 36.7978V34.6988C163.789 35.4184 163.16 35.9882 162.35 36.438C161.51 36.8878 160.581 37.0977 159.501 37.0977C158.272 37.0977 157.162 36.8278 156.143 36.2281C155.123 35.6583 154.284 34.7887 153.684 33.6493C153.084 32.5098 152.785 31.1005 152.785 29.4812C152.785 27.862 153.084 26.4527 153.684 25.3132C154.284 24.1737 155.093 23.3041 156.113 22.7044C157.132 22.1047 158.242 21.8048 159.501 21.8048C160.581 21.8048 161.57 22.0447 162.41 22.4945C163.25 22.9743 163.849 23.544 164.239 24.2037V22.1047H167.088V37.0677C167.088 38.3271 166.788 39.4665 166.218 40.4561C165.618 41.4756 164.779 42.2552 163.669 42.825C162.56 43.4247 161.241 43.6946 159.741 43.6946C157.642 43.6946 155.993 43.2748 154.794 42.4052ZM162.11 34.0691C162.74 33.6493 163.25 33.0496 163.639 32.2699C164.029 31.4903 164.239 30.5607 164.239 29.4812C164.239 28.4317 164.029 27.5022 163.669 26.6925C163.28 25.8829 162.77 25.2532 162.14 24.8334C161.51 24.4136 160.821 24.1737 160.101 24.1737H159.861C158.632 24.1737 157.612 24.6535 156.833 25.5531C156.023 26.4826 155.633 27.802 155.633 29.4812C155.633 31.2204 156.023 32.5098 156.803 33.3794C157.582 34.279 158.572 34.6988 159.771 34.6988H159.981C160.761 34.6988 161.45 34.4889 162.11 34.0691ZM171.606 16.1075H174.455V37.0977H171.606V16.1075ZM181.474 36.438C180.395 35.8083 179.555 34.9087 178.955 33.7092C178.326 32.5398 178.026 31.1604 178.026 29.5712C178.026 28.0119 178.326 26.6626 178.955 25.4931C179.585 24.3237 180.425 23.4241 181.504 22.7644C182.554 22.1347 183.723 21.8048 185.013 21.8048C186.782 21.8048 188.281 22.3446 189.48 23.4241C190.68 24.5036 191.4 25.9729 191.639 27.832C191.699 28.5217 191.729 29.3013 191.729 30.1409H180.875C180.934 31.6702 181.354 32.8696 182.134 33.7092C182.914 34.5788 183.873 34.9986 185.013 34.9986H185.192C186.032 34.9986 186.752 34.7887 187.381 34.339C187.981 33.9191 188.401 33.3194 188.641 32.5398H191.52C191.16 33.9791 190.41 35.1486 189.241 36.0481C188.071 36.9477 186.692 37.3975 185.073 37.3975C183.753 37.3975 182.554 37.0977 181.474 36.438ZM187.681 25.1932C186.992 24.5336 186.152 24.1737 185.133 24.1737H184.923C183.963 24.1737 183.093 24.5036 182.374 25.1033C181.654 25.703 181.174 26.6326 180.964 27.892H188.821C188.731 26.7525 188.341 25.8529 187.681 25.1932ZM202.949 16.1075H211.795C213.084 16.1075 214.224 16.3774 215.243 16.8572C216.263 17.3669 217.042 18.0866 217.642 19.0461C218.212 20.0057 218.512 21.1451 218.512 22.4645C218.512 23.7839 218.212 24.9534 217.642 25.9129C217.042 26.8725 216.263 27.6221 215.243 28.1019C214.224 28.6116 213.084 28.8515 211.795 28.8515H205.947V37.0977H202.949V16.1075ZM214.403 25.1932C215.123 24.5635 215.513 23.664 215.513 22.4645C215.513 21.2951 215.123 20.3955 214.403 19.7658C213.684 19.1361 212.664 18.8062 211.345 18.8062H205.947V26.1228H211.345C212.664 26.1228 213.684 25.823 214.403 25.1932ZM221.809 36.1381C220.85 35.2985 220.37 34.249 220.37 32.9296C220.37 30.1409 222.319 28.5817 226.247 28.2818L230.625 27.952V27.4722C230.625 26.4527 230.295 25.673 229.636 25.0733C228.976 24.4736 228.106 24.1737 227.057 24.1737H226.937C226.037 24.1737 225.288 24.3836 224.658 24.8034C224.028 25.2232 223.638 25.763 223.488 26.4527H220.7C220.88 25.1033 221.569 23.9938 222.709 23.1242C223.848 22.2546 225.318 21.8048 227.057 21.8048C229.096 21.8048 230.685 22.3446 231.795 23.4241C232.874 24.5036 233.444 25.9129 233.444 27.5921V33.7992C233.444 35.2985 233.474 36.408 233.594 37.0977H230.955C230.895 36.7978 230.835 36.438 230.805 35.9882C230.775 35.5384 230.775 35.1486 230.775 34.8487C230.325 35.5684 229.636 36.1681 228.736 36.6479C227.806 37.1576 226.757 37.3975 225.617 37.3975C224.028 37.3975 222.769 36.9777 221.809 36.1381ZM228.286 34.5489C228.946 34.249 229.516 33.7692 229.965 33.1095C230.385 32.4798 230.625 31.7002 230.625 30.8006V30.1409L226.607 30.4108C225.468 30.5008 224.598 30.7406 224.028 31.1604C223.429 31.5802 223.159 32.12 223.159 32.8097C223.159 33.4694 223.399 33.9791 223.938 34.3989C224.478 34.8187 225.168 35.0286 226.067 35.0286H226.187C226.907 35.0286 227.597 34.8787 228.286 34.5489ZM238.895 42.4052C237.695 41.5356 237.006 40.3661 236.886 38.9268H239.734C239.854 39.7064 240.274 40.3061 240.994 40.726C241.713 41.1458 242.613 41.3257 243.752 41.3257H244.022C245.282 41.3257 246.331 40.9658 247.141 40.1862C247.92 39.4366 248.34 38.2971 248.34 36.7978V34.6988C247.89 35.4184 247.261 35.9882 246.451 36.438C245.612 36.8878 244.682 37.0977 243.602 37.0977C242.373 37.0977 241.264 36.8278 240.244 36.2281C239.225 35.6583 238.385 34.7887 237.785 33.6493C237.185 32.5098 236.886 31.1005 236.886 29.4812C236.886 27.862 237.185 26.4527 237.785 25.3132C238.385 24.1737 239.195 23.3041 240.214 22.7044C241.234 22.1047 242.343 21.8048 243.602 21.8048C244.682 21.8048 245.671 22.0447 246.511 22.4945C247.351 22.9743 247.95 23.544 248.34 24.2037V22.1047H251.189V37.0677C251.189 38.3271 250.889 39.4665 250.319 40.4561C249.72 41.4756 248.88 42.2552 247.771 42.825C246.661 43.4247 245.342 43.6946 243.842 43.6946C241.743 43.6946 240.094 43.2748 238.895 42.4052ZM246.211 34.0691C246.841 33.6493 247.351 33.0496 247.741 32.2699C248.13 31.4903 248.34 30.5607 248.34 29.4812C248.34 28.4317 248.13 27.5022 247.771 26.6925C247.381 25.8829 246.871 25.2532 246.241 24.8334C245.612 24.4136 244.922 24.1737 244.202 24.1737H243.962C242.733 24.1737 241.713 24.6535 240.934 25.5531C240.124 26.4826 239.734 27.802 239.734 29.4812C239.734 31.2204 240.124 32.5098 240.904 33.3794C241.683 34.279 242.673 34.6988 243.872 34.6988H244.082C244.862 34.6988 245.552 34.4889 246.211 34.0691ZM258.196 36.438C257.117 35.8083 256.277 34.9087 255.677 33.7092C255.047 32.5398 254.748 31.1604 254.748 29.5712C254.748 28.0119 255.047 26.6626 255.677 25.4931C256.307 24.3237 257.146 23.4241 258.226 22.7644C259.275 22.1347 260.445 21.8048 261.734 21.8048C263.504 21.8048 265.003 22.3446 266.202 23.4241C267.402 24.5036 268.121 25.9729 268.361 27.832C268.421 28.5217 268.451 29.3013 268.451 30.1409H257.596C257.656 31.6702 258.076 32.8696 258.856 33.7092C259.635 34.5788 260.595 34.9986 261.734 34.9986H261.914C262.754 34.9986 263.474 34.7887 264.103 34.339C264.703 33.9191 265.123 33.3194 265.363 32.5398H268.241C267.881 33.9791 267.132 35.1486 265.962 36.0481C264.793 36.9477 263.414 37.3975 261.794 37.3975C260.475 37.3975 259.275 37.0977 258.196 36.438ZM264.403 25.1932C263.713 24.5336 262.874 24.1737 261.854 24.1737H261.644C260.685 24.1737 259.815 24.5036 259.096 25.1033C258.376 25.703 257.896 26.6326 257.686 27.892H265.543C265.453 26.7525 265.063 25.8529 264.403 25.1932Z" fill="white"/>
<path d="M110.843 70.9385C109.404 69.7091 108.654 67.9699 108.624 65.7209H111.593C111.593 67.1303 112.073 68.2098 113.032 68.9594C113.962 69.7091 115.251 70.0689 116.87 70.0689H117.17C118.52 70.0689 119.599 69.769 120.379 69.1693C121.158 68.5696 121.578 67.76 121.578 66.8004C121.578 65.0912 120.439 64.0117 118.16 63.5919L114.651 62.9323C112.882 62.6024 111.563 61.9727 110.693 61.0132C109.794 60.0836 109.374 58.8242 109.374 57.2049C109.374 56.1254 109.674 55.1059 110.273 54.1764C110.873 53.2768 111.713 52.5271 112.852 51.9874C113.992 51.4476 115.311 51.1778 116.81 51.1778C118.34 51.1778 119.689 51.4776 120.829 52.0174C121.968 52.5571 122.868 53.3368 123.527 54.3263C124.187 55.3158 124.517 56.4553 124.577 57.7747H121.578C121.458 56.5752 120.978 55.6457 120.139 54.926C119.299 54.2363 118.22 53.8765 116.9 53.8765H116.6C115.341 53.8765 114.292 54.2064 113.512 54.8061C112.702 55.4358 112.313 56.2154 112.313 57.145C112.313 57.9546 112.552 58.5843 113.062 59.0341C113.572 59.5139 114.322 59.8137 115.341 59.9936L118.849 60.6233C120.649 60.9832 122.058 61.6429 123.077 62.6624C124.097 63.6819 124.607 65.0313 124.607 66.6805C124.607 67.9099 124.277 68.9894 123.647 69.889C122.987 70.8185 122.088 71.5382 120.918 72.018C119.749 72.5277 118.4 72.7676 116.87 72.7676C114.292 72.7676 112.283 72.1679 110.843 70.9385ZM130.904 71.5082C130.245 70.8485 129.945 69.919 129.945 68.7195V59.8737H126.676V57.4748H129.945V52.6171H132.794V57.4748H136.392V59.8737H132.794V68.3297C132.794 68.9294 132.914 69.3792 133.153 69.6191C133.393 69.859 133.813 69.9789 134.443 69.9789H136.842V72.4678H133.693C132.464 72.4678 131.534 72.1679 130.904 71.5082ZM140.551 71.5082C139.591 70.6686 139.111 69.6191 139.111 68.2997C139.111 65.511 141.061 63.9518 144.989 63.6519L149.367 63.3221V62.8423C149.367 61.8228 149.037 61.0431 148.377 60.4434C147.717 59.8437 146.848 59.5438 145.798 59.5438H145.678C144.779 59.5438 144.029 59.7537 143.399 60.1735C142.77 60.5934 142.38 61.1331 142.23 61.8228H139.441C139.621 60.4734 140.311 59.3639 141.45 58.4943C142.59 57.6247 144.059 57.175 145.798 57.175C147.837 57.175 149.427 57.7147 150.536 58.7942C151.616 59.8737 152.185 61.283 152.185 62.9622V69.1693C152.185 70.6686 152.215 71.7781 152.335 72.4678H149.697C149.637 72.1679 149.577 71.8081 149.547 71.3583C149.517 70.9085 149.517 70.5187 149.517 70.2188C149.067 70.9385 148.377 71.5382 147.478 72.018C146.548 72.5277 145.498 72.7676 144.359 72.7676C142.77 72.7676 141.51 72.3478 140.551 71.5082ZM147.028 69.919C147.687 69.6191 148.257 69.1393 148.707 68.4796C149.127 67.8499 149.367 67.0703 149.367 66.1707V65.511L145.349 65.7809C144.209 65.8709 143.339 66.1108 142.77 66.5306C142.17 66.9504 141.9 67.4901 141.9 68.1798C141.9 68.8395 142.14 69.3492 142.68 69.769C143.22 70.1888 143.909 70.3987 144.809 70.3987H144.929C145.648 70.3987 146.338 70.2488 147.028 69.919ZM156.557 57.4748H159.285V60.3834C159.585 59.5139 160.185 58.7942 161.025 58.1945C161.864 57.6247 162.884 57.3249 164.023 57.3249H164.923V59.9936H164.023C160.935 59.9936 159.405 61.8827 159.405 65.601V72.4678H156.557V57.4748ZM171.907 71.5082C171.247 70.8485 170.947 69.919 170.947 68.7195V59.8737H167.679V57.4748H170.947V52.6171H173.796V57.4748H177.394V59.8737H173.796V68.3297C173.796 68.9294 173.916 69.3792 174.156 69.6191C174.396 69.859 174.815 69.9789 175.445 69.9789H177.844V72.4678H174.695C173.466 72.4678 172.536 72.1679 171.907 71.5082ZM182.333 71.1784C181.343 70.1289 180.863 68.7195 180.863 66.9804V57.4748H183.712V66.3207C183.712 67.5801 183.982 68.5696 184.522 69.2293C185.061 69.919 185.841 70.2488 186.891 70.2488H186.95C188.09 70.2488 189.02 69.799 189.709 68.8695C190.399 67.9699 190.759 66.5905 190.759 64.7614V57.4748H193.607V72.4678H190.759V70.4587C190.279 71.1784 189.679 71.7481 188.9 72.1679C188.12 72.5877 187.22 72.7676 186.201 72.7676C184.582 72.7676 183.292 72.2579 182.333 71.1784ZM198.145 57.4748H200.993V59.5438C201.383 58.8842 202.013 58.3444 202.912 57.8646C203.782 57.4148 204.742 57.175 205.821 57.175C207.11 57.175 208.28 57.5048 209.299 58.1345C210.319 58.7942 211.129 59.6938 211.728 60.8632C212.298 62.0627 212.598 63.412 212.598 64.9713C212.598 66.5605 212.298 67.9399 211.698 69.1094C211.099 70.3088 210.259 71.2084 209.239 71.8381C208.19 72.4678 207.02 72.7676 205.731 72.7676C204.652 72.7676 203.722 72.5577 202.882 72.1079C202.043 71.6881 201.413 71.1184 200.993 70.4287V78.465H198.145V57.4748ZM208.55 68.8395C209.329 67.8499 209.749 66.5605 209.749 64.9713C209.749 63.412 209.329 62.1226 208.55 61.1031C207.77 60.1136 206.721 59.6038 205.461 59.6038H205.281C204.442 59.6038 203.692 59.8437 203.032 60.2935C202.373 60.7733 201.833 61.403 201.473 62.2126C201.113 63.0222 200.933 63.9518 200.933 64.9713C200.933 66.0208 201.113 66.9504 201.473 67.76C201.833 68.5696 202.373 69.1993 203.032 69.6491C203.692 70.1289 204.442 70.3388 205.281 70.3388H205.461C206.721 70.3388 207.77 69.859 208.55 68.8395Z" fill="white"/>
</svg>
